<svg version="1.0" xmlns="http://www.w3.org/2000/svg" width="346.667" height="346.667" viewBox="0 0 260 260"><path d="M38.8 111.8c-2.2.3-2.8.9-2.8 2.6 0 1.3-.7 2.9-1.5 3.6-.8.7-1.5 1.6-1.5 2.1s-1.8 3.9-3.9 7.4c-2.2 3.6-3.7 6.5-3.3 6.5.4 0 2.8-3.7 5.4-8.3l4.8-8.2-.1 14.3c-.1 14-.2 14.3-2.5 15.5-2.1 1.1-1.4 1.2 5.6 1.2 4.4 0 8-.3 8-.8 0-.4-.9-.7-2-.7s-2.1-.3-2.1-.8c-.1-.4-.2-8.2-.3-17.4 0-9.1-.3-16.8-.6-17-.3-.2-1.7-.2-3.2 0zm28.8.3c-1 .6-4.8.9-8.7.7-3.8-.2-6.9-.1-7 .2-.4 2.3-.4 11.8 0 11.4.3-.3.6-1.8.6-3.2 0-1.9.5-2.6 1.5-2.4 7.2 1.6 14.4-.8 16.1-5.6.9-2.4.3-2.7-2.5-1.1zm14.6 8.6c.1 6.3.5 9.2 1.2 9 .7-.2 1.1-3.3 1.1-8 0-4.1.4-7.9.8-8.3 1.1-1.2 7.7-1.1 7.8 0 .1.6.2 4.4.3 8.5 0 4.4.5 7.6 1.2 7.8.8.3 1.1-2.6 1.1-9.2l-.1-9.6-6.7.2-6.7.2v9.4zm25.3-8.8c-.8 1.3-6.5 17.2-6.5 18 .1 1.5 3-3.5 3-5.1 0-1 .6-1.8 1.3-1.9.6 0 2-.2 3-.4 1.2-.2 2.2.7 3.1 3 1.3 3.1 3.3 5.2 4.1 4.3.4-.3-6.2-17.8-7-18.6-.2-.2-.6.1-1 .7zm1.7 7c.2 1.7-.2 2.5-1.4 2.7-1.9.2-2.1-.7-1.2-4.4.8-2.7 2.1-1.8 2.6 1.7zm11.7-7.2c0 .5-.1 4.7-.2 9.5-.2 6.5.1 8.8 1.1 8.8.9 0 1.2-2.4 1.2-8.4 0-4.7.3-8.7.8-8.9.4-.3 1.7-.1 3 .4 3.3 1.3 2.9 6.9-.8 8.1-.9.3-1 .7-.3 1.1 1.7 1 5.3-2.8 5.3-5.6 0-1.4-.7-3.3-1.6-4.1-1.5-1.6-8.3-2.3-8.5-.9zm19.3 2.5c-.5 1.8-1.9 5.7-3.1 8.6-2.3 5.7-2.6 7.6-1.2 6.7.5-.3 1.2-1.9 1.6-3.5.6-3 1-3.3 4-3.3 2.8 0 3.1.3 4.4 3.8.7 1.9 1.9 3.5 2.7 3.5 1.3 0 1.3-.4.1-2.8-.8-1.5-2.4-5.7-3.7-9.5-1.3-3.7-2.7-6.7-3.1-6.7-.5 0-1.2 1.5-1.7 3.2zm3.2 5.4c.6 1.8.3 2.1-1.8 1.7-2.2-.4-2.3-.7-1.3-3.4 1.1-2.9 1.8-2.6 3.1 1.7zm14.5-8.4c0 .2-.2 2.3-.3 4.8-.2 2.5-1.3 6.4-2.5 8.7-2.5 5-2.5 5.3-.8 5.3 1.6 0 4.7-8.9 4.7-13.5 0-2.4.5-3.4 1.9-3.8 1.1-.3 2.2-.2 2.5.1.3.3.6 4.3.6 8.9 0 6.2.3 8.4 1.2 8.1 1-.4 1.5-10.2.9-18.1-.1-.6-8-1.1-8.2-.5zm18.3 4.4c0 3-.9 6.3-2.6 9.5-2 3.9-2.2 4.9-1 4.9 2.4 0 5.2-8.5 5.4-16.2 0-1 .7-1.5 1.8-1.3.9.2 2 .4 2.3.4.3.1.6 3.8.5 8.3-.1 5.7.3 8.3 1.2 8.5.9.4 1.2-1.9 1.2-9.1V111h-8.8v4.6zm16.2 4.8l.1 9.1h3.9c2.3 0 4.1-.5 4.4-1.3.3-.9-.2-1-2.2-.2-2.9 1.1-3.8.2-4.1-4.2-.2-2.5.1-2.8 2.6-2.8 1.6 0 2.9-.5 2.9-1 0-.6-1.1-1-2.5-1s-2.5-.3-2.6-.8c0-.4-.2-1.5-.4-2.5-.4-2.3 2.5-3.8 4.9-2.5 1.4.8 1.7.7 1.4-.3-.3-.8-2.1-1.5-4.4-1.5l-4-.2v9.2zm18.4-8.7c-.3.4-.5 2.4-.7 4.3-.1 1.9-1.3 5.8-2.6 8.7-1.7 3.9-2 5.3-1.1 5.3 1.7 0 4.2-6.1 5.1-12.1.8-5.4 1.1-5.8 3.3-5.5 1.5.3 1.7 1.5 1.7 8.6 0 5 .4 8.5 1.1 8.7.7.2 1.1-2.9 1.2-9l.1-9.3-3.9-.2c-2.1-.2-4 .1-4.2.5zm15.2-.5c0 .1-.2 4.5-.3 9.6-.2 7.9 0 9.2 1.4 9.2 1.3 0 1.6-1 1.5-4.7-.1-4.1.2-4.8 1.9-4.8 1.1 0 2.5 1.1 3.2 2.5 1 2 .9 2.7-.4 4.2-.9 1-2 1.5-2.4 1.2-.5-.3-.9 0-.9.5 0 1.7 2.8 1.3 4.9-.8 3.6-3.6-.1-10.1-5.1-8.8-1.7.5-1.9.1-1.6-3.6.1-2.5-.2-4.2-1-4.5-.6-.2-1.2-.2-1.2 0zM57 126c-.7.4.1 1 1.9 1.3 2.2.5 3.5 1.5 4.2 3.3 1 2.7 1.3 9.2.6 12.7-1 5.1-7.1 7.4-10.9 4-1-.9-1.8-1.2-1.8-.6 0 2 4.8 3.6 9.2 2.9 4.9-.8 6.7-1.9 9.2-5.8 3.1-4.8 1.2-14.5-3.2-16.3-3.5-1.5-8-2.2-9.2-1.5zm-5.8 1.7c.1 1-.1 2.3-.5 3-.4.6-.3 1.4.3 1.8.5.3 1-.1 1-.9 0-.9.6-1.6 1.3-1.6.9 0 .8-.3-.2-.9-.7-.5-1-1.4-.7-2 .4-.6.2-1.1-.4-1.1-.6 0-1 .8-.8 1.7z"/><path d="M23.6 136.5c-.6 1.6-.5 1.7 3.6 1.9 1.5.1 2.4-.2 2.1-.6-.2-.5-1.4-.6-2.5-.2-1.7.5-2 .3-1.5-1 .4-.9.2-1.6-.2-1.6-.5 0-1.1.7-1.5 1.5zm8 1.7c.3.5 1 .6 1.5.3 1.3-.9 1.1-1.2-.6-1.2-.8 0-1.2.4-.9.9zm13 0c.3.5 1 .6 1.5.3 1.3-.9 1.1-1.2-.6-1.2-.8 0-1.2.4-.9.9zm37.9-.3c-.2.4 1.8.6 4.5.6s4.6-.2 4.3-.5c-.7-.7-8.3-.8-8.8-.1zm10.5.1c0 .7 27.7.7 28.3 0 .3-.3-6-.5-13.9-.5s-14.4.2-14.4.5zm30-.1c0 .3 1.4.7 3 .7 1.7.1 3-.1 3-.5 0-.3-1.3-.7-3-.7-1.6-.1-3 .1-3 .5zm7.5.1c-.2.3 23.5.5 52.5.5 29.1 0 52.6-.2 52.3-.5-.6-.7-104.4-.7-104.8 0zm-80 1.6c-1.9 2-1.6 5.9.5 6 4.4.2 7.2-5.6 3.4-7-2.1-.8-2-.8-3.9 1zm32.1 7.6c.3.4 0 .8-.7.8s-1 .2-.7.5c.7.7 3.8-.5 3.8-1.4 0-.4-.7-.8-1.5-.8s-1.2.4-.9.9zm21.5.4c0 1.1.3 1.4.6.6.3-.7.2-1.6-.1-1.9-.3-.4-.6.2-.5 1.3zm6.4-.5c-.4.6-.5 1.2-.2 1.5.2.3.7-.2 1-1.1.7-1.7.1-2-.8-.4zm8.2.5c.2.7 1.1 1 1.9.7 1.9-.7 1.8-1-.5-1.6-1.3-.3-1.8-.1-1.4.9zm28.3-1.2c0 .2.7.7 1.6 1 .8.3 1.2.2.9-.4-.6-1-2.5-1.4-2.5-.6zm14.3 1.1c-.3.9-.3 1.8-.1 2.1.3.3.8-.4 1.1-1.6.6-2.3-.1-2.7-1-.5zm-72.3 1c0 .8.4 1.5 1 1.5.5 0 .7-.7.4-1.5-.4-.8-.8-1.5-1-1.5-.2 0-.4.7-.4 1.5zm24.1.1c0 1.1.3 1.4.6.6.3-.7.2-1.6-.1-1.9-.3-.4-.6.2-.5 1.3zm19.4-.6c-.3.5-.1 1 .4 1 .6 0 1.1-.5 1.1-1 0-.6-.2-1-.4-1-.3 0-.8.4-1.1 1zm43.4-.1c1.1.7 1.1.9 0 1.4-.8.3-.4.4.8.4 1.7-.1 1.9-.4 1.1-1.4-.6-.7-1.6-1.3-2.2-1.3-.6 0-.5.4.3.9zm-79.2 1.2c.7.7 1.5 1 1.8.7.3-.3-.2-.9-1.2-1.2-1.4-.6-1.5-.5-.6.5zm28.3-.7c0 .2.9.6 2 .9 1.1.3 1.8.1 1.4-.4-.5-.9-3.4-1.3-3.4-.5z"/></svg>