<svg width="170" height="37" viewBox="0 0 170 37" fill="none" xmlns="http://www.w3.org/2000/svg"><g clip-path="url(#clip0_747_875)"><path d="M169.044 24.722a.954.954 0 00-.955.951c0 .525.428.951.955.951a.954.954 0 00.956-.951.954.954 0 00-.956-.951zm0 1.752a.803.803 0 01-.804-.801.805.805 0 011.611 0c0 .44-.362.8-.807.8zm.312-.964c0-.173-.124-.275-.306-.275h-.305v.866h.15v-.313h.163l.158.313h.162l-.174-.345a.255.255 0 00.152-.246zm-.312.143h-.147v-.288h.147c.101 0 .162.05.162.143 0 .095-.063.145-.162.145zM53.903 15.094v-2.3h-3.544v13.688h3.544v-8.208c0-1.486.958-2.216 2.45-2.216h1.94v-3.264h-1.657c-1.297 0-2.424.673-2.733 2.3zm7.71-7.715c-1.213 0-2.142.954-2.142 2.16 0 1.179.93 2.132 2.141 2.132a2.117 2.117 0 002.142-2.132c0-1.206-.93-2.16-2.142-2.16zm-1.768 19.102h3.535V12.793h-3.535v13.689zm20.376-6.844c0 3.908-3.182 7.076-7.107 7.076a6.858 6.858 0 01-4.172-1.39V30.5h-3.536V12.793h3.536v1.159a6.858 6.858 0 014.172-1.39c3.925 0 7.107 3.168 7.107 7.075zm-3.558 0c0-2.121-1.729-3.843-3.86-3.843-2.132 0-3.861 1.722-3.861 3.843a3.854 3.854 0 003.86 3.844 3.852 3.852 0 003.861-3.844zm65.007-1.2l-2.063-.563c-1.358-.352-1.885-.767-1.885-1.48 0-.696.744-1.183 1.806-1.183 1.012 0 1.806.66 1.806 1.504v.079h3.259v-.079c0-2.484-2.034-4.153-5.065-4.153-3 0-5.18 1.667-5.18 3.966 0 1.788 1.19 3.136 3.267 3.695l1.976.537c1.501.414 2.059.872 2.059 1.695 0 .867-.807 1.45-2.007 1.45-1.25 0-2.093-.788-2.093-1.959v-.078h-3.458v.078c0 2.808 2.27 4.77 5.523 4.77 3.134 0 5.408-1.916 5.408-4.555 0-1.295-.581-2.988-3.353-3.724zm-48.907-5.644h3.535v13.689h-3.535v-1.159a6.859 6.859 0 01-4.172 1.39c-3.925 0-7.107-3.168-7.107-7.076 0-3.907 3.182-7.075 7.107-7.075a6.86 6.86 0 014.172 1.39v-1.159zm0 6.845a3.852 3.852 0 00-3.86-3.844c-2.132 0-3.862 1.722-3.862 3.843 0 2.122 1.73 3.844 3.861 3.844a3.85 3.85 0 003.861-3.844zm16.302-11.716h3.535v18.561h-3.535v-1.158a6.86 6.86 0 01-4.172 1.39c-3.926 0-7.108-3.168-7.108-7.076 0-3.907 3.182-7.075 7.108-7.075a6.86 6.86 0 014.172 1.39V7.922zm0 11.715c0-2.121-1.73-3.843-3.861-3.843-2.132 0-3.861 1.722-3.861 3.843a3.852 3.852 0 003.861 3.844 3.853 3.853 0 003.861-3.844zm19.95 6.845h3.535V12.793h-3.535v13.688zm1.767-19.103c-1.212 0-2.141.954-2.141 2.16 0 1.179.929 2.132 2.141 2.132a2.117 2.117 0 002.142-2.132c0-1.206-.929-2.16-2.142-2.16zm29.523 12.258c0 3.908-3.182 7.076-7.108 7.076-3.925 0-7.107-3.168-7.107-7.076 0-3.907 3.182-7.075 7.107-7.075 3.926 0 7.108 3.168 7.108 7.075zm-3.247 0c0-2.121-1.729-3.843-3.861-3.843a3.853 3.853 0 00-3.86 3.843 3.851 3.851 0 003.86 3.844 3.852 3.852 0 003.861-3.844zM52.093 7.922H38.53v3.14h5.02v15.42h3.523v-15.42h5.02v-3.14h-.001zm68.586 14.81l-3.145-9.938h-3.714l4.718 13.688h4.254l4.746-13.688h-3.713l-3.146 9.939zm44.806-7.638v-2.3h-3.544v13.688h3.544v-8.208c0-1.486.957-2.216 2.45-2.216h1.94v-3.264h-1.657c-1.297 0-2.422.673-2.733 2.3z" fill="#fff"/><path d="M18.082 36.666c9.986 0 18.081-8.059 18.081-18s-8.095-18-18.081-18C8.096.666 0 8.725 0 18.666s8.096 18 18.082 18z" fill="#34E0A1"/><path d="M29.25 15.155l2.181-2.363h-4.838a15.07 15.07 0 00-8.512-2.607c-3.16 0-6.076.961-8.495 2.607h-4.85l2.181 2.363a6.612 6.612 0 00-2.175 4.907c0 3.666 2.986 6.639 6.669 6.639 1.75 0 3.343-.672 4.533-1.77l2.138 2.317 2.137-2.315a6.658 6.658 0 004.531 1.768c3.683 0 6.673-2.973 6.673-6.639a6.596 6.596 0 00-2.173-4.907zm-17.837 9.4c-2.493 0-4.514-2.011-4.514-4.493s2.02-4.493 4.514-4.493c2.493 0 4.513 2.011 4.513 4.493s-2.02 4.493-4.513 4.493zm6.67-4.624c0-2.956-2.16-5.494-5.01-6.578a13 13 0 015.008-.998c1.776 0 3.47.356 5.01.998-2.848 1.086-5.008 3.622-5.008 6.578zm6.67 4.624c-2.494 0-4.514-2.011-4.514-4.493s2.02-4.493 4.514-4.493c2.493 0 4.513 2.011 4.513 4.493s-2.02 4.493-4.513 4.493zm0-6.85a2.36 2.36 0 00-2.366 2.355 2.36 2.36 0 002.366 2.355 2.36 2.36 0 002.365-2.355 2.36 2.36 0 00-2.365-2.355zm-10.975 2.357a2.36 2.36 0 01-2.365 2.355 2.36 2.36 0 01-2.366-2.355 2.36 2.36 0 012.366-2.355 2.358 2.358 0 012.365 2.355z" fill="#181818"/></g><defs><clipPath id="clip0_747_875"><path fill="#fff" transform="translate(0 .666)" d="M0 0h170v36H0z"/></clipPath></defs></svg>